<svg xmlns="http://www.w3.org/2000/svg" xmlns:xlink="http://www.w3.org/1999/xlink" width="500" zoomAndPan="magnify" viewBox="0 0 375 266.250005" height="355" preserveAspectRatio="xMidYMid meet" version="1.0"><defs><g/><clipPath id="75649eb397"><path d="M 12 0 L 374.472656 0 L 374.472656 265.503906 L 12 265.503906 Z M 12 0 " clip-rule="nonzero"/></clipPath><clipPath id="afa1726228"><path d="M 28.902344 244.691406 L 291.582031 244.691406 L 291.582031 263.941406 L 28.902344 263.941406 Z M 28.902344 244.691406 " clip-rule="nonzero"/></clipPath><clipPath id="1e1bd940b6"><path d="M 0.902344 0.691406 L 263.582031 0.691406 L 263.582031 19.941406 L 0.902344 19.941406 Z M 0.902344 0.691406 " clip-rule="nonzero"/></clipPath><clipPath id="7f6d75bb76"><rect x="0" width="264" y="0" height="20"/></clipPath><clipPath id="f6b80945a1"><path d="M 28.902344 244.691406 L 291.214844 244.691406 L 291.214844 263.941406 L 28.902344 263.941406 Z M 28.902344 244.691406 " clip-rule="nonzero"/></clipPath><clipPath id="9ee23e23c5"><path d="M 290.078125 243.3125 L 325.746094 243.3125 L 325.746094 265.316406 L 290.078125 265.316406 Z M 290.078125 243.3125 " clip-rule="nonzero"/></clipPath><clipPath id="c1d3ddd625"><path d="M 325.746094 254.316406 L 290.128906 265.316406 L 290.128906 243.3125 Z M 325.746094 254.316406 " clip-rule="nonzero"/></clipPath><clipPath id="7a776e05b3"><path d="M 0.078125 0.3125 L 35.746094 0.3125 L 35.746094 22.316406 L 0.078125 22.316406 Z M 0.078125 0.3125 " clip-rule="nonzero"/></clipPath><clipPath id="34544cce62"><path d="M 35.746094 11.316406 L 0.128906 22.316406 L 0.128906 0.3125 Z M 35.746094 11.316406 " clip-rule="nonzero"/></clipPath><clipPath id="9fbf8aef55"><rect x="0" width="36" y="0" height="23"/></clipPath><clipPath id="e5fd87be06"><path d="M 290 243.3125 L 325.746094 243.3125 L 325.746094 264.972656 L 290 264.972656 Z M 290 243.3125 " clip-rule="nonzero"/></clipPath><clipPath id="57713a1756"><path d="M 325.746094 254.3125 L 290.140625 265.3125 L 290.140625 243.3125 Z M 325.746094 254.3125 " clip-rule="nonzero"/></clipPath><clipPath id="bc4448ab07"><rect x="0" width="363" y="0" height="266"/></clipPath></defs><g clip-path="url(#75649eb397)"><g transform="matrix(1, 0, 0, 1, 12, -0.00000000000000942)"><g clip-path="url(#bc4448ab07)"><g fill="#000000" fill-opacity="1"><g transform="translate(21.605359, 98.371874)"><g><path d="M 30.871094 -25.992188 L 30.871094 1.855469 L 28.636719 2.464844 C 27.652344 2.730469 26.164062 2.992188 24.171875 3.238281 C 22.199219 3.488281 20.265625 3.609375 18.367188 3.609375 C 16.394531 3.609375 14.636719 3.457031 13.09375 3.148438 C 11.296875 2.789062 9.753906 2.125 8.460938 1.15625 C 7.066406 0.109375 6.03125 -1.308594 5.363281 -3.09375 C 4.773438 -4.667969 4.476562 -6.640625 4.476562 -9.011719 L 4.476562 -72.53125 L 6.964844 -72.984375 C 7.847656 -73.144531 9.230469 -73.363281 11.113281 -73.636719 C 13.105469 -73.929688 15.023438 -74.074219 16.863281 -74.074219 C 18.835938 -74.074219 20.59375 -73.917969 22.136719 -73.609375 C 23.933594 -73.25 25.480469 -72.585938 26.769531 -71.617188 C 28.167969 -70.570312 29.199219 -69.15625 29.871094 -67.371094 C 30.460938 -65.792969 30.753906 -63.824219 30.753906 -61.453125 L 30.753906 -43.085938 L 27.722656 -43.085938 L 25.4375 -45.078125 L 50.371094 -73.726562 L 51.75 -73.726562 C 57.738281 -73.726562 62.15625 -72.5 64.996094 -70.042969 C 67.96875 -67.472656 69.453125 -64.378906 69.453125 -60.761719 C 69.453125 -58.226562 68.820312 -55.84375 67.558594 -53.609375 C 66.421875 -51.597656 64.640625 -49.378906 62.210938 -46.949219 L 47.773438 -32.511719 L 45.628906 -34.652344 L 47.890625 -36.671875 C 49.804688 -34.527344 51.820312 -32.304688 53.929688 -30.003906 C 56.039062 -27.699219 58.113281 -25.453125 60.152344 -23.261719 C 62.1875 -21.070312 64.144531 -18.976562 66.027344 -16.980469 L 71.761719 -10.910156 L 71.761719 -9.703125 C 71.761719 -7.558594 71.359375 -5.625 70.550781 -3.90625 C 69.757812 -2.222656 68.6875 -0.78125 67.335938 0.417969 C 66 1.605469 64.492188 2.496094 62.808594 3.089844 C 61.171875 3.667969 59.449219 3.957031 57.640625 3.957031 C 53.78125 3.957031 50.578125 2.949219 48.023438 0.9375 C 45.867188 -0.761719 43.800781 -2.765625 41.824219 -5.074219 L 25.539062 -24.015625 L 27.839844 -25.992188 Z M 24.804688 -34.167969 L 46.429688 -9.019531 C 48.148438 -7.011719 49.933594 -5.28125 51.78125 -3.824219 C 53.230469 -2.679688 55.183594 -2.109375 57.640625 -2.109375 C 58.757812 -2.109375 59.808594 -2.28125 60.789062 -2.628906 C 61.726562 -2.957031 62.566406 -3.453125 63.308594 -4.113281 C 64.039062 -4.761719 64.625 -5.554688 65.0625 -6.488281 C 65.488281 -7.390625 65.699219 -8.460938 65.699219 -9.703125 L 68.730469 -9.703125 L 66.527344 -7.621094 L 61.613281 -12.820312 C 59.722656 -14.828125 57.753906 -16.933594 55.710938 -19.132812 C 53.664062 -21.332031 51.578125 -23.589844 49.457031 -25.90625 C 47.332031 -28.226562 45.300781 -30.46875 43.367188 -32.632812 L 41.457031 -34.773438 L 57.921875 -51.238281 C 59.960938 -53.277344 61.414062 -55.0625 62.277344 -56.59375 C 63.019531 -57.902344 63.386719 -59.289062 63.386719 -60.761719 C 63.386719 -62.53125 62.601562 -64.097656 61.03125 -65.453125 C 59.328125 -66.925781 56.234375 -67.664062 51.75 -67.664062 L 51.75 -70.695312 L 54.039062 -68.703125 L 24.691406 -34.984375 L 24.691406 -61.453125 C 24.691406 -63.089844 24.523438 -64.351562 24.191406 -65.242188 C 23.9375 -65.917969 23.582031 -66.429688 23.132812 -66.765625 C 22.574219 -67.183594 21.847656 -67.484375 20.949219 -67.664062 C 19.796875 -67.894531 18.4375 -68.007812 16.863281 -68.007812 C 15.316406 -68.007812 13.691406 -67.882812 11.988281 -67.636719 C 10.175781 -67.371094 8.863281 -67.164062 8.050781 -67.019531 L 7.507812 -70 L 10.539062 -70 L 10.539062 -9.011719 C 10.539062 -7.375 10.707031 -6.113281 11.039062 -5.222656 C 11.296875 -4.542969 11.648438 -4.035156 12.101562 -3.695312 C 12.65625 -3.277344 13.386719 -2.980469 14.28125 -2.800781 C 15.433594 -2.570312 16.796875 -2.453125 18.367188 -2.453125 C 20.011719 -2.453125 21.695312 -2.5625 23.417969 -2.777344 C 25.125 -2.992188 26.332031 -3.195312 27.042969 -3.386719 L 27.839844 -0.460938 L 24.804688 -0.460938 Z M 24.804688 -34.167969 "/></g></g></g><g fill="#000000" fill-opacity="1"><g transform="translate(115.178494, 98.371874)"><g><path d="M 2.511719 -71.734375 C 2.511719 -75.488281 3.785156 -78.660156 6.324219 -81.25 C 8.882812 -83.859375 12.203125 -85.164062 16.289062 -85.164062 C 20.371094 -85.164062 23.691406 -83.859375 26.25 -81.25 C 28.792969 -78.660156 30.0625 -75.488281 30.0625 -71.734375 C 30.0625 -67.980469 28.792969 -64.808594 26.25 -62.21875 C 23.691406 -59.609375 20.371094 -58.304688 16.289062 -58.304688 C 12.203125 -58.304688 8.882812 -59.609375 6.324219 -62.21875 C 3.785156 -64.808594 2.511719 -67.980469 2.511719 -71.734375 Z M 8.578125 -71.734375 C 8.578125 -69.632812 9.269531 -67.878906 10.65625 -66.464844 C 12.023438 -65.066406 13.902344 -64.371094 16.289062 -64.371094 C 18.671875 -64.371094 20.550781 -65.066406 21.917969 -66.464844 C 23.304688 -67.878906 23.996094 -69.632812 23.996094 -71.734375 C 23.996094 -73.835938 23.304688 -75.589844 21.917969 -77.003906 C 20.550781 -78.398438 18.671875 -79.097656 16.289062 -79.097656 C 13.902344 -79.097656 12.023438 -78.398438 10.65625 -77.003906 C 9.269531 -75.589844 8.578125 -73.835938 8.578125 -71.734375 Z M 26.648438 2.867188 C 25.78125 3.023438 24.511719 3.238281 22.839844 3.511719 C 21.023438 3.808594 19.183594 3.957031 17.328125 3.957031 C 15.460938 3.957031 13.769531 3.828125 12.253906 3.566406 C 10.421875 3.253906 8.851562 2.601562 7.539062 1.617188 C 6.175781 0.59375 5.136719 -0.765625 4.421875 -2.464844 C 3.765625 -4.035156 3.4375 -5.984375 3.4375 -8.316406 L 3.4375 -57.863281 L 5.925781 -58.316406 C 6.792969 -58.472656 8.0625 -58.6875 9.734375 -58.960938 C 11.554688 -59.253906 13.390625 -59.402344 15.246094 -59.402344 C 17.113281 -59.402344 18.804688 -59.273438 20.324219 -59.011719 C 22.152344 -58.699219 23.722656 -58.050781 25.039062 -57.0625 C 26.402344 -56.042969 27.4375 -54.679688 28.152344 -52.980469 C 28.808594 -51.410156 29.136719 -49.460938 29.136719 -47.128906 L 29.136719 2.414062 Z M 25.5625 -3.097656 L 26.105469 -0.117188 L 23.074219 -0.117188 L 23.074219 -47.128906 C 23.074219 -48.648438 22.902344 -49.816406 22.558594 -50.636719 C 22.269531 -51.324219 21.882812 -51.847656 21.398438 -52.210938 C 20.867188 -52.613281 20.164062 -52.886719 19.296875 -53.035156 C 18.121094 -53.238281 16.769531 -53.339844 15.246094 -53.339844 C 13.71875 -53.339844 12.203125 -53.21875 10.710938 -52.972656 C 9.074219 -52.707031 7.839844 -52.5 7.011719 -52.347656 L 6.46875 -55.332031 L 9.5 -55.332031 L 9.5 -8.316406 C 9.5 -6.796875 9.671875 -5.628906 10.015625 -4.8125 C 10.304688 -4.125 10.691406 -3.597656 11.175781 -3.234375 C 11.710938 -2.835938 12.410156 -2.558594 13.277344 -2.410156 C 14.453125 -2.210938 15.804688 -2.109375 17.328125 -2.109375 C 18.859375 -2.109375 20.371094 -2.230469 21.863281 -2.472656 C 23.503906 -2.738281 24.734375 -2.949219 25.5625 -3.097656 Z M 25.5625 -3.097656 "/></g></g></g><g fill="#000000" fill-opacity="1"><g transform="translate(170.867388, 98.371874)"><g><path d="M 0.546875 -28.070312 C 0.546875 -33.554688 1.394531 -38.347656 3.089844 -42.453125 C 4.804688 -46.609375 7.199219 -50.074219 10.273438 -52.847656 C 13.324219 -55.597656 16.882812 -57.636719 20.949219 -58.964844 C 24.914062 -60.257812 29.171875 -60.90625 33.730469 -60.90625 C 35.453125 -60.90625 37.140625 -60.753906 38.785156 -60.449219 C 40.460938 -60.140625 41.859375 -59.753906 42.980469 -59.285156 L 41.816406 -56.488281 L 38.785156 -56.488281 L 38.785156 -77.457031 L 40.945312 -78.105469 C 41.84375 -78.375 43.207031 -78.652344 45.035156 -78.945312 C 46.886719 -79.238281 48.78125 -79.386719 50.710938 -79.386719 C 52.578125 -79.386719 54.269531 -79.257812 55.785156 -78.996094 C 57.613281 -78.683594 59.1875 -78.035156 60.5 -77.046875 C 61.886719 -76.007812 62.917969 -74.621094 63.589844 -72.886719 C 64.1875 -71.339844 64.484375 -69.417969 64.484375 -67.113281 L 64.484375 -12.359375 C 64.484375 -7.632812 62.324219 -3.890625 58 -1.136719 C 55.554688 0.464844 52.429688 1.863281 48.617188 3.066406 C 44.78125 4.277344 40.394531 4.878906 35.460938 4.878906 C 30.113281 4.878906 25.292969 4.128906 21.003906 2.632812 C 16.625 1.101562 12.910156 -1.125 9.859375 -4.046875 C 6.800781 -6.976562 4.480469 -10.476562 2.890625 -14.550781 C 1.328125 -18.5625 0.546875 -23.070312 0.546875 -28.070312 Z M 6.613281 -28.070312 C 6.613281 -23.828125 7.257812 -20.058594 8.542969 -16.753906 C 9.804688 -13.511719 11.640625 -10.738281 14.054688 -8.425781 C 16.46875 -6.113281 19.453125 -4.335938 23.007812 -3.09375 C 26.648438 -1.820312 30.800781 -1.183594 35.460938 -1.183594 C 39.773438 -1.183594 43.550781 -1.695312 46.796875 -2.71875 C 50.070312 -3.75 52.722656 -4.929688 54.742188 -6.253906 C 57.195312 -7.816406 58.421875 -9.851562 58.421875 -12.359375 L 58.421875 -67.113281 C 58.421875 -68.660156 58.257812 -69.855469 57.933594 -70.699219 C 57.679688 -71.351562 57.324219 -71.851562 56.863281 -72.195312 C 56.328125 -72.597656 55.628906 -72.871094 54.761719 -73.019531 C 53.582031 -73.222656 52.234375 -73.324219 50.710938 -73.324219 C 49.097656 -73.324219 47.523438 -73.199219 45.988281 -72.957031 C 44.429688 -72.707031 43.328125 -72.488281 42.6875 -72.296875 L 41.816406 -75.199219 L 44.847656 -75.199219 L 44.847656 -51.9375 L 40.648438 -53.6875 C 39.925781 -53.988281 38.9375 -54.253906 37.6875 -54.484375 C 36.402344 -54.722656 35.085938 -54.839844 33.730469 -54.839844 C 29.816406 -54.839844 26.183594 -54.292969 22.832031 -53.199219 C 19.582031 -52.140625 16.746094 -50.519531 14.332031 -48.34375 C 11.9375 -46.1875 10.058594 -43.453125 8.695312 -40.140625 C 7.308594 -36.777344 6.613281 -32.753906 6.613281 -28.070312 Z M 36.386719 -39.476562 C 33.105469 -39.476562 30.648438 -38.605469 29.011719 -36.855469 C 27.324219 -35.050781 26.480469 -32.125 26.480469 -28.070312 C 26.480469 -24.042969 27.277344 -21.101562 28.871094 -19.242188 C 30.34375 -17.523438 32.582031 -16.664062 35.578125 -16.664062 C 36.59375 -16.664062 37.488281 -16.808594 38.257812 -17.101562 C 39.035156 -17.394531 39.59375 -17.691406 39.933594 -17.992188 L 41.929688 -15.710938 L 38.898438 -15.710938 L 38.898438 -41.121094 L 41.929688 -41.121094 L 40.371094 -38.523438 C 39.3125 -39.160156 37.984375 -39.476562 36.386719 -39.476562 Z M 36.386719 -45.542969 C 39.101562 -45.542969 41.472656 -44.933594 43.492188 -43.722656 L 44.964844 -42.839844 L 44.964844 -14.332031 L 43.929688 -13.429688 C 43.039062 -12.648438 41.863281 -11.984375 40.40625 -11.429688 C 38.945312 -10.875 37.335938 -10.597656 35.578125 -10.597656 C 30.722656 -10.597656 26.949219 -12.164062 24.265625 -15.296875 C 21.699219 -18.289062 20.417969 -22.546875 20.417969 -28.070312 C 20.417969 -33.71875 21.804688 -38.03125 24.585938 -41 C 27.417969 -44.027344 31.351562 -45.542969 36.386719 -45.542969 Z M 36.386719 -45.542969 "/></g></g></g><g fill="#000000" fill-opacity="1"><g transform="translate(261.676759, 98.371874)"><g><path d="M 67.140625 -28.070312 C 67.140625 -22.914062 66.339844 -18.289062 64.738281 -14.199219 C 63.113281 -10.050781 60.8125 -6.550781 57.832031 -3.699219 C 54.859375 -0.859375 51.324219 1.289062 47.21875 2.742188 C 43.195312 4.167969 38.738281 4.878906 33.84375 4.878906 C 28.933594 4.878906 24.460938 4.121094 20.421875 2.609375 C 16.328125 1.074219 12.804688 -1.128906 9.84375 -4.003906 C 6.875 -6.886719 4.578125 -10.378906 2.957031 -14.476562 C 1.351562 -18.535156 0.546875 -23.0625 0.546875 -28.070312 C 0.546875 -33 1.351562 -37.492188 2.957031 -41.546875 C 4.578125 -45.644531 6.875 -49.136719 9.84375 -52.019531 C 12.804688 -54.894531 16.328125 -57.097656 20.421875 -58.632812 C 24.460938 -60.148438 28.933594 -60.90625 33.84375 -60.90625 C 38.765625 -60.90625 43.25 -60.125 47.296875 -58.566406 C 51.378906 -56.992188 54.894531 -54.773438 57.847656 -51.902344 C 60.816406 -49.023438 63.113281 -45.53125 64.734375 -41.429688 C 66.339844 -37.375 67.140625 -32.921875 67.140625 -28.070312 Z M 61.078125 -28.070312 C 61.078125 -32.152344 60.417969 -35.859375 59.097656 -39.199219 C 57.792969 -42.492188 55.96875 -45.277344 53.625 -47.554688 C 51.261719 -49.84375 48.425781 -51.628906 45.113281 -52.90625 C 41.769531 -54.195312 38.011719 -54.839844 33.84375 -54.839844 C 29.667969 -54.839844 25.902344 -54.210938 22.550781 -52.953125 C 19.25 -51.714844 16.421875 -49.953125 14.066406 -47.667969 C 11.722656 -45.390625 9.898438 -42.605469 8.59375 -39.3125 C 7.273438 -35.976562 6.613281 -32.226562 6.613281 -28.070312 C 6.613281 -23.835938 7.273438 -20.046875 8.59375 -16.710938 C 9.898438 -13.417969 11.722656 -10.632812 14.066406 -8.355469 C 16.421875 -6.070312 19.25 -4.308594 22.550781 -3.070312 C 25.902344 -1.8125 29.667969 -1.183594 33.84375 -1.183594 C 38.042969 -1.183594 41.824219 -1.78125 45.191406 -2.972656 C 48.480469 -4.136719 51.296875 -5.839844 53.640625 -8.082031 C 55.972656 -10.316406 57.792969 -13.09375 59.09375 -16.410156 C 60.417969 -19.792969 61.078125 -23.675781 61.078125 -28.070312 Z M 26.710938 -28.070312 C 26.710938 -24.027344 27.425781 -21.019531 28.851562 -19.046875 C 30.054688 -17.378906 31.757812 -16.546875 33.960938 -16.546875 C 36.128906 -16.546875 37.777344 -17.375 38.90625 -19.035156 C 40.289062 -21.0625 40.980469 -24.074219 40.980469 -28.070312 C 40.980469 -32.046875 40.277344 -35.023438 38.878906 -37.003906 C 37.710938 -38.652344 36.035156 -39.476562 33.84375 -39.476562 C 31.65625 -39.476562 29.980469 -38.652344 28.8125 -37.003906 C 27.414062 -35.023438 26.710938 -32.046875 26.710938 -28.070312 Z M 20.648438 -28.070312 C 20.648438 -33.332031 21.71875 -37.480469 23.863281 -40.507812 C 26.238281 -43.863281 29.566406 -45.542969 33.84375 -45.542969 C 38.125 -45.542969 41.453125 -43.863281 43.828125 -40.507812 C 45.972656 -37.480469 47.042969 -33.332031 47.042969 -28.070312 C 47.042969 -22.824219 46 -18.675781 43.917969 -15.617188 C 41.582031 -12.195312 38.265625 -10.484375 33.960938 -10.484375 C 29.695312 -10.484375 26.351562 -12.152344 23.9375 -15.492188 C 21.746094 -18.527344 20.648438 -22.71875 20.648438 -28.070312 Z M 20.648438 -28.070312 "/></g></g></g><g fill="#000000" fill-opacity="1"><g transform="translate(0.0780854, 213.885906)"><g><path d="M 33.730469 -40.574219 C 36.210938 -40.574219 38.03125 -41.078125 39.195312 -42.085938 C 40.230469 -42.984375 40.746094 -44.511719 40.746094 -46.667969 C 40.746094 -48.675781 40.1875 -50.164062 39.070312 -51.140625 C 37.832031 -52.222656 35.859375 -52.761719 33.152344 -52.761719 C 31.96875 -52.761719 30.996094 -52.742188 30.234375 -52.707031 C 29.5625 -52.675781 28.867188 -52.59375 28.148438 -52.464844 L 27.609375 -55.445312 L 30.640625 -55.445312 L 30.640625 -37.542969 L 27.609375 -37.542969 L 27.609375 -40.574219 Z M 33.730469 -34.511719 L 24.574219 -34.511719 L 24.574219 -57.976562 L 27.066406 -58.429688 C 28.042969 -58.609375 29.003906 -58.71875 29.945312 -58.765625 C 30.804688 -58.804688 31.871094 -58.824219 33.152344 -58.824219 C 37.375 -58.824219 40.679688 -57.785156 43.058594 -55.710938 C 45.5625 -53.527344 46.8125 -50.511719 46.8125 -46.667969 C 46.8125 -42.664062 45.597656 -39.609375 43.167969 -37.503906 C 40.863281 -35.507812 37.71875 -34.511719 33.730469 -34.511719 Z M 28.519531 2.464844 C 27.539062 2.730469 26.070312 2.988281 24.121094 3.238281 C 22.183594 3.484375 20.265625 3.609375 18.367188 3.609375 C 16.394531 3.609375 14.636719 3.457031 13.09375 3.148438 C 11.296875 2.789062 9.753906 2.125 8.460938 1.15625 C 7.066406 0.109375 6.03125 -1.308594 5.363281 -3.09375 C 4.773438 -4.667969 4.476562 -6.640625 4.476562 -9.011719 L 4.476562 -63.417969 C 4.476562 -65.871094 5.214844 -67.835938 6.691406 -69.316406 C 7.90625 -70.527344 9.5 -71.480469 11.472656 -72.171875 C 14.292969 -73.164062 17.484375 -73.886719 21.046875 -74.339844 C 24.523438 -74.777344 28.019531 -74.996094 31.535156 -74.996094 C 42.878906 -74.996094 51.636719 -72.5 57.816406 -67.507812 C 64.1875 -62.359375 67.375 -55.410156 67.375 -46.667969 C 67.375 -42.511719 66.707031 -38.734375 65.375 -35.335938 C 64.011719 -31.867188 61.992188 -28.882812 59.308594 -26.375 C 56.636719 -23.878906 53.300781 -21.964844 49.300781 -20.628906 C 45.410156 -19.332031 40.949219 -18.683594 35.925781 -18.683594 L 27.722656 -18.683594 L 27.722656 -21.714844 L 30.753906 -21.714844 L 30.753906 1.855469 Z M 26.925781 -3.386719 L 27.722656 -0.460938 L 24.691406 -0.460938 L 24.691406 -24.75 L 35.925781 -24.75 C 40.292969 -24.75 44.113281 -25.292969 47.382812 -26.382812 C 50.546875 -27.4375 53.140625 -28.910156 55.167969 -30.804688 C 57.179688 -32.6875 58.703125 -34.9375 59.726562 -37.550781 C 60.78125 -40.238281 61.308594 -43.277344 61.308594 -46.667969 C 61.308594 -53.480469 58.875 -58.855469 54.003906 -62.792969 C 48.9375 -66.886719 41.449219 -68.933594 31.535156 -68.933594 C 28.273438 -68.933594 25.03125 -68.730469 21.808594 -68.320312 C 18.671875 -67.925781 15.894531 -67.300781 13.476562 -66.445312 C 12.371094 -66.058594 11.539062 -65.585938 10.980469 -65.027344 C 10.6875 -64.734375 10.539062 -64.195312 10.539062 -63.417969 L 10.539062 -9.011719 C 10.539062 -7.375 10.707031 -6.113281 11.039062 -5.222656 C 11.296875 -4.542969 11.648438 -4.035156 12.101562 -3.695312 C 12.65625 -3.277344 13.386719 -2.980469 14.28125 -2.800781 C 15.433594 -2.570312 16.796875 -2.453125 18.367188 -2.453125 C 20.007812 -2.453125 21.671875 -2.5625 23.355469 -2.777344 C 25.023438 -2.988281 26.214844 -3.195312 26.925781 -3.386719 Z M 26.925781 -3.386719 "/></g></g></g><g fill="#000000" fill-opacity="1"><g transform="translate(87.992086, 213.885906)"><g><path d="M 26.515625 2.789062 C 25.597656 3.0625 24.234375 3.328125 22.425781 3.582031 C 20.628906 3.832031 18.777344 3.957031 16.863281 3.957031 C 15 3.957031 13.308594 3.828125 11.789062 3.566406 C 9.960938 3.253906 8.390625 2.601562 7.074219 1.617188 C 5.710938 0.59375 4.675781 -0.765625 3.960938 -2.464844 C 3.304688 -4.035156 2.972656 -5.984375 2.972656 -8.316406 L 2.972656 -42.972656 C 2.972656 -45.234375 3.414062 -47.214844 4.292969 -48.921875 C 5.140625 -50.570312 6.347656 -52.027344 7.90625 -53.296875 C 9.34375 -54.464844 11.089844 -55.507812 13.144531 -56.425781 C 15.078125 -57.289062 17.144531 -58.046875 19.355469 -58.699219 C 21.5625 -59.355469 23.851562 -59.867188 26.21875 -60.234375 C 28.605469 -60.605469 30.996094 -60.789062 33.382812 -60.789062 C 37.6875 -60.789062 41.171875 -59.910156 43.835938 -58.148438 C 46.898438 -56.125 48.429688 -52.953125 48.429688 -48.632812 C 48.429688 -47.261719 48.234375 -45.914062 47.84375 -44.59375 C 47.472656 -43.347656 47.007812 -42.207031 46.441406 -41.171875 L 45.578125 -39.59375 L 43.78125 -39.59375 C 42.253906 -39.59375 40.691406 -39.519531 39.085938 -39.375 C 37.492188 -39.230469 35.933594 -39.011719 34.414062 -38.722656 C 32.847656 -38.421875 31.375 -38.105469 30 -37.773438 C 28.765625 -37.472656 27.738281 -37.132812 26.914062 -36.753906 L 25.644531 -39.503906 L 28.675781 -39.503906 L 28.675781 2.140625 Z M 24.773438 -3.019531 L 25.644531 -0.117188 L 22.613281 -0.117188 L 22.613281 -41.445312 L 24.375 -42.257812 C 25.554688 -42.804688 26.949219 -43.273438 28.566406 -43.664062 C 30.039062 -44.023438 31.609375 -44.363281 33.277344 -44.679688 C 34.992188 -45.003906 36.746094 -45.25 38.539062 -45.414062 C 40.324219 -45.574219 42.070312 -45.65625 43.78125 -45.65625 L 43.78125 -42.625 L 41.117188 -44.078125 C 41.476562 -44.734375 41.78125 -45.480469 42.027344 -46.316406 C 42.253906 -47.074219 42.363281 -47.847656 42.363281 -48.632812 C 42.363281 -50.777344 41.738281 -52.265625 40.492188 -53.089844 C 38.839844 -54.179688 36.472656 -54.726562 33.382812 -54.726562 C 31.304688 -54.726562 29.226562 -54.5625 27.148438 -54.242188 C 25.050781 -53.914062 23.027344 -53.464844 21.078125 -52.886719 C 19.125 -52.308594 17.304688 -51.640625 15.617188 -50.886719 C 14.050781 -50.1875 12.757812 -49.421875 11.730469 -48.589844 C 10.828125 -47.855469 10.144531 -47.039062 9.683594 -46.144531 C 9.253906 -45.308594 9.039062 -44.253906 9.039062 -42.972656 L 9.039062 -8.316406 C 9.039062 -6.796875 9.210938 -5.628906 9.554688 -4.8125 C 9.84375 -4.125 10.230469 -3.597656 10.714844 -3.234375 C 11.246094 -2.835938 11.949219 -2.558594 12.816406 -2.410156 C 13.992188 -2.210938 15.34375 -2.109375 16.863281 -2.109375 C 18.496094 -2.109375 20.070312 -2.214844 21.585938 -2.425781 C 23.089844 -2.636719 24.152344 -2.832031 24.773438 -3.019531 Z M 24.773438 -3.019531 "/></g></g></g><g fill="#000000" fill-opacity="1"><g transform="translate(158.57146, 213.885906)"><g><path d="M 2.511719 -71.734375 C 2.511719 -75.488281 3.785156 -78.660156 6.324219 -81.25 C 8.882812 -83.859375 12.203125 -85.164062 16.289062 -85.164062 C 20.371094 -85.164062 23.691406 -83.859375 26.25 -81.25 C 28.792969 -78.660156 30.0625 -75.488281 30.0625 -71.734375 C 30.0625 -67.980469 28.792969 -64.808594 26.25 -62.21875 C 23.691406 -59.609375 20.371094 -58.304688 16.289062 -58.304688 C 12.203125 -58.304688 8.882812 -59.609375 6.324219 -62.21875 C 3.785156 -64.808594 2.511719 -67.980469 2.511719 -71.734375 Z M 8.578125 -71.734375 C 8.578125 -69.632812 9.269531 -67.878906 10.65625 -66.464844 C 12.023438 -65.066406 13.902344 -64.371094 16.289062 -64.371094 C 18.671875 -64.371094 20.550781 -65.066406 21.917969 -66.464844 C 23.304688 -67.878906 23.996094 -69.632812 23.996094 -71.734375 C 23.996094 -73.835938 23.304688 -75.589844 21.917969 -77.003906 C 20.550781 -78.398438 18.671875 -79.097656 16.289062 -79.097656 C 13.902344 -79.097656 12.023438 -78.398438 10.65625 -77.003906 C 9.269531 -75.589844 8.578125 -73.835938 8.578125 -71.734375 Z M 26.648438 2.867188 C 25.78125 3.023438 24.511719 3.238281 22.839844 3.511719 C 21.023438 3.808594 19.183594 3.957031 17.328125 3.957031 C 15.460938 3.957031 13.769531 3.828125 12.253906 3.566406 C 10.421875 3.253906 8.851562 2.601562 7.539062 1.617188 C 6.175781 0.59375 5.136719 -0.765625 4.421875 -2.464844 C 3.765625 -4.035156 3.4375 -5.984375 3.4375 -8.316406 L 3.4375 -57.863281 L 5.925781 -58.316406 C 6.792969 -58.472656 8.0625 -58.6875 9.734375 -58.960938 C 11.554688 -59.253906 13.390625 -59.402344 15.246094 -59.402344 C 17.113281 -59.402344 18.804688 -59.273438 20.324219 -59.011719 C 22.152344 -58.699219 23.722656 -58.050781 25.039062 -57.0625 C 26.402344 -56.042969 27.4375 -54.679688 28.152344 -52.980469 C 28.808594 -51.410156 29.136719 -49.460938 29.136719 -47.128906 L 29.136719 2.414062 Z M 25.5625 -3.097656 L 26.105469 -0.117188 L 23.074219 -0.117188 L 23.074219 -47.128906 C 23.074219 -48.648438 22.902344 -49.816406 22.558594 -50.636719 C 22.269531 -51.324219 21.882812 -51.847656 21.398438 -52.210938 C 20.867188 -52.613281 20.164062 -52.886719 19.296875 -53.035156 C 18.121094 -53.238281 16.769531 -53.339844 15.246094 -53.339844 C 13.71875 -53.339844 12.203125 -53.21875 10.710938 -52.972656 C 9.074219 -52.707031 7.839844 -52.5 7.011719 -52.347656 L 6.46875 -55.332031 L 9.5 -55.332031 L 9.5 -8.316406 C 9.5 -6.796875 9.671875 -5.628906 10.015625 -4.8125 C 10.304688 -4.125 10.691406 -3.597656 11.175781 -3.234375 C 11.710938 -2.835938 12.410156 -2.558594 13.277344 -2.410156 C 14.453125 -2.210938 15.804688 -2.109375 17.328125 -2.109375 C 18.859375 -2.109375 20.371094 -2.230469 21.863281 -2.472656 C 23.503906 -2.738281 24.734375 -2.949219 25.5625 -3.097656 Z M 25.5625 -3.097656 "/></g></g></g><g fill="#000000" fill-opacity="1"><g transform="translate(214.260354, 213.885906)"><g><path d="M 38.554688 -35.578125 C 38.554688 -37.015625 38.246094 -37.988281 37.628906 -38.5 C 36.84375 -39.152344 35.660156 -39.476562 34.078125 -39.476562 C 32.792969 -39.476562 31.523438 -39.316406 30.265625 -38.996094 C 29.132812 -38.703125 28.175781 -38.28125 27.40625 -37.730469 L 25.644531 -40.199219 L 28.675781 -40.199219 L 28.675781 2.140625 L 26.515625 2.789062 C 25.597656 3.0625 24.234375 3.328125 22.425781 3.582031 C 20.628906 3.832031 18.777344 3.957031 16.863281 3.957031 C 15 3.957031 13.308594 3.828125 11.789062 3.566406 C 9.960938 3.253906 8.390625 2.601562 7.074219 1.617188 C 5.710938 0.59375 4.675781 -0.765625 3.960938 -2.464844 C 3.304688 -4.035156 2.972656 -5.984375 2.972656 -8.316406 L 2.972656 -42.972656 C 2.972656 -45.671875 3.589844 -47.929688 4.824219 -49.753906 C 5.917969 -51.371094 7.390625 -52.828125 9.234375 -54.117188 C 12.121094 -56.15625 15.710938 -57.800781 20.003906 -59.050781 C 24.246094 -60.285156 28.9375 -60.90625 34.078125 -60.90625 C 43.496094 -60.90625 50.832031 -58.773438 56.085938 -54.507812 C 61.53125 -50.089844 64.253906 -44.011719 64.253906 -36.269531 L 64.253906 2.140625 L 62.09375 2.789062 C 61.175781 3.0625 59.8125 3.328125 58.003906 3.582031 C 56.207031 3.832031 54.355469 3.957031 52.445312 3.957031 C 50.578125 3.957031 48.886719 3.828125 47.367188 3.566406 C 45.539062 3.253906 43.96875 2.601562 42.652344 1.617188 C 41.289062 0.59375 40.253906 -0.765625 39.539062 -2.464844 C 38.882812 -4.035156 38.554688 -5.984375 38.554688 -8.316406 Z M 44.617188 -35.578125 L 44.617188 -8.316406 C 44.617188 -6.796875 44.789062 -5.628906 45.132812 -4.8125 C 45.421875 -4.125 45.808594 -3.597656 46.292969 -3.234375 C 46.824219 -2.835938 47.527344 -2.558594 48.394531 -2.410156 C 49.570312 -2.210938 50.921875 -2.109375 52.445312 -2.109375 C 54.074219 -2.109375 55.648438 -2.214844 57.164062 -2.425781 C 58.667969 -2.636719 59.730469 -2.832031 60.351562 -3.019531 L 61.222656 -0.117188 L 58.191406 -0.117188 L 58.191406 -36.269531 C 58.191406 -42.085938 56.214844 -46.59375 52.265625 -49.800781 C 48.125 -53.160156 42.0625 -54.839844 34.078125 -54.839844 C 29.511719 -54.839844 25.386719 -54.304688 21.699219 -53.230469 C 18.058594 -52.167969 15.0625 -50.808594 12.710938 -49.152344 C 11.476562 -48.285156 10.523438 -47.355469 9.847656 -46.355469 C 9.308594 -45.558594 9.039062 -44.429688 9.039062 -42.972656 L 9.039062 -8.316406 C 9.039062 -6.796875 9.210938 -5.628906 9.554688 -4.8125 C 9.84375 -4.125 10.230469 -3.597656 10.714844 -3.234375 C 11.246094 -2.835938 11.949219 -2.558594 12.816406 -2.410156 C 13.992188 -2.210938 15.34375 -2.109375 16.863281 -2.109375 C 18.496094 -2.109375 20.070312 -2.214844 21.585938 -2.425781 C 23.089844 -2.636719 24.152344 -2.832031 24.773438 -3.019531 L 25.644531 -0.117188 L 22.613281 -0.117188 L 22.613281 -41.757812 L 23.882812 -42.667969 C 25.265625 -43.65625 26.894531 -44.390625 28.761719 -44.867188 C 30.507812 -45.316406 32.28125 -45.542969 34.078125 -45.542969 C 37.117188 -45.542969 39.589844 -44.75 41.5 -43.167969 C 43.578125 -41.445312 44.617188 -38.914062 44.617188 -35.578125 Z M 44.617188 -35.578125 "/></g></g></g><g fill="#000000" fill-opacity="1"><g transform="translate(304.712511, 213.885906)"><g><path d="M 28.675781 -19.289062 C 28.675781 -18.371094 28.863281 -17.785156 29.230469 -17.539062 C 29.992188 -17.03125 31.222656 -16.777344 32.921875 -16.777344 C 33.917969 -16.777344 34.957031 -16.863281 36.035156 -17.03125 C 37.097656 -17.199219 38.015625 -17.40625 38.777344 -17.664062 L 40.761719 -18.324219 L 42.082031 -16.707031 C 42.929688 -15.671875 43.65625 -14.527344 44.257812 -13.269531 C 44.960938 -11.816406 45.308594 -10.125 45.308594 -8.203125 C 45.308594 -4.335938 43.851562 -1.175781 40.9375 1.28125 C 38.179688 3.601562 33.660156 4.765625 27.375 4.765625 C 19.863281 4.765625 13.992188 2.988281 9.773438 -0.570312 C 5.394531 -4.253906 3.207031 -10.035156 3.207031 -17.90625 L 3.207031 -69.660156 L 5.441406 -70.269531 C 6.382812 -70.527344 7.691406 -70.796875 9.367188 -71.085938 C 11.113281 -71.382812 12.957031 -71.53125 14.902344 -71.53125 C 18.875 -71.53125 22.054688 -70.777344 24.433594 -69.273438 C 27.261719 -67.484375 28.675781 -64.105469 28.675781 -59.144531 L 28.675781 -51.75 L 25.644531 -51.75 L 25.644531 -54.78125 L 42.578125 -54.78125 L 43.4375 -53.203125 C 43.988281 -52.195312 44.5 -50.972656 44.980469 -49.53125 C 45.507812 -47.949219 45.773438 -46.226562 45.773438 -44.355469 C 45.773438 -40.824219 44.878906 -38.164062 43.09375 -36.378906 C 41.308594 -34.59375 38.996094 -33.703125 36.15625 -33.703125 L 25.644531 -33.703125 L 25.644531 -36.734375 L 28.675781 -36.734375 Z M 22.613281 -19.289062 L 22.613281 -39.765625 L 36.15625 -39.765625 C 37.320312 -39.765625 38.203125 -40.066406 38.804688 -40.667969 C 39.40625 -41.269531 39.707031 -42.5 39.707031 -44.355469 C 39.707031 -45.570312 39.546875 -46.65625 39.226562 -47.613281 C 38.863281 -48.714844 38.492188 -49.609375 38.113281 -50.296875 L 40.777344 -51.75 L 40.777344 -48.71875 L 22.613281 -48.71875 L 22.613281 -59.144531 C 22.613281 -60.703125 22.441406 -61.941406 22.097656 -62.859375 C 21.863281 -63.484375 21.5625 -63.914062 21.191406 -64.148438 C 19.800781 -65.027344 17.703125 -65.46875 14.902344 -65.46875 C 13.300781 -65.46875 11.796875 -65.347656 10.386719 -65.105469 C 8.90625 -64.855469 7.789062 -64.625 7.035156 -64.417969 L 6.238281 -67.34375 L 9.269531 -67.34375 L 9.269531 -17.90625 C 9.269531 -11.914062 10.738281 -7.683594 13.679688 -5.207031 C 16.769531 -2.601562 21.335938 -1.300781 27.375 -1.300781 C 32.183594 -1.300781 35.402344 -1.984375 37.03125 -3.359375 C 38.507812 -4.601562 39.246094 -6.214844 39.246094 -8.203125 C 39.246094 -9.203125 39.09375 -10.015625 38.796875 -10.640625 C 38.398438 -11.464844 37.929688 -12.203125 37.390625 -12.867188 L 39.738281 -14.785156 L 40.695312 -11.910156 C 39.609375 -11.546875 38.371094 -11.257812 36.96875 -11.039062 C 35.582031 -10.824219 34.234375 -10.714844 32.921875 -10.714844 C 30 -10.714844 27.648438 -11.308594 25.867188 -12.492188 C 23.699219 -13.941406 22.613281 -16.207031 22.613281 -19.289062 Z M 22.613281 -19.289062 "/></g></g></g><g fill="#ef476f" fill-opacity="1"><g transform="translate(21.605359, 98.371874)"><g><path d="M 27.84375 -25.984375 L 27.84375 -0.46875 C 26.988281 -0.226562 25.640625 0.00390625 23.796875 0.234375 C 21.953125 0.460938 20.140625 0.578125 18.359375 0.578125 C 16.585938 0.578125 15.03125 0.441406 13.6875 0.171875 C 12.34375 -0.0976562 11.207031 -0.578125 10.28125 -1.265625 C 9.351562 -1.960938 8.660156 -2.925781 8.203125 -4.15625 C 7.742188 -5.382812 7.515625 -7.003906 7.515625 -9.015625 L 7.515625 -70 C 8.359375 -70.15625 9.703125 -70.367188 11.546875 -70.640625 C 13.398438 -70.910156 15.171875 -71.046875 16.859375 -71.046875 C 18.628906 -71.046875 20.1875 -70.910156 21.53125 -70.640625 C 22.882812 -70.367188 24.023438 -69.882812 24.953125 -69.1875 C 25.878906 -68.5 26.570312 -67.535156 27.03125 -66.296875 C 27.488281 -65.066406 27.71875 -63.453125 27.71875 -61.453125 L 27.71875 -43.09375 L 51.75 -70.703125 C 56.988281 -70.703125 60.742188 -69.71875 63.015625 -67.75 C 65.285156 -65.78125 66.421875 -63.453125 66.421875 -60.765625 C 66.421875 -58.765625 65.921875 -56.875 64.921875 -55.09375 C 63.921875 -53.320312 62.300781 -51.320312 60.0625 -49.09375 L 45.625 -34.65625 C 47.550781 -32.5 49.570312 -30.265625 51.6875 -27.953125 C 53.8125 -25.640625 55.894531 -23.382812 57.9375 -21.1875 C 59.976562 -19 61.941406 -16.898438 63.828125 -14.890625 C 65.710938 -12.890625 67.347656 -11.160156 68.734375 -9.703125 C 68.734375 -8.003906 68.425781 -6.5 67.8125 -5.1875 C 67.195312 -3.882812 66.367188 -2.769531 65.328125 -1.84375 C 64.285156 -0.925781 63.109375 -0.238281 61.796875 0.21875 C 60.492188 0.6875 59.109375 0.921875 57.640625 0.921875 C 54.484375 0.921875 51.90625 0.132812 49.90625 -1.4375 C 47.90625 -3.019531 45.976562 -4.890625 44.125 -7.046875 Z M 27.84375 -25.984375 "/></g></g></g><g fill="#ffd166" fill-opacity="1"><g transform="translate(115.178494, 98.371874)"><g><path d="M 5.546875 -71.734375 C 5.546875 -74.660156 6.523438 -77.125 8.484375 -79.125 C 10.453125 -81.125 13.050781 -82.125 16.28125 -82.125 C 19.519531 -82.125 22.117188 -81.125 24.078125 -79.125 C 26.046875 -77.125 27.03125 -74.660156 27.03125 -71.734375 C 27.03125 -68.804688 26.046875 -66.34375 24.078125 -64.34375 C 22.117188 -62.34375 19.519531 -61.34375 16.28125 -61.34375 C 13.050781 -61.34375 10.453125 -62.34375 8.484375 -64.34375 C 6.523438 -66.34375 5.546875 -68.804688 5.546875 -71.734375 Z M 26.109375 -0.109375 C 25.253906 0.0351562 24 0.242188 22.34375 0.515625 C 20.695312 0.785156 19.023438 0.921875 17.328125 0.921875 C 15.628906 0.921875 14.109375 0.804688 12.765625 0.578125 C 11.421875 0.347656 10.285156 -0.109375 9.359375 -0.796875 C 8.429688 -1.492188 7.71875 -2.4375 7.21875 -3.625 C 6.71875 -4.820312 6.46875 -6.382812 6.46875 -8.3125 L 6.46875 -55.328125 C 7.3125 -55.484375 8.5625 -55.695312 10.21875 -55.96875 C 11.875 -56.238281 13.550781 -56.375 15.25 -56.375 C 16.945312 -56.375 18.46875 -56.253906 19.8125 -56.015625 C 21.15625 -55.785156 22.289062 -55.320312 23.21875 -54.625 C 24.144531 -53.9375 24.859375 -52.992188 25.359375 -51.796875 C 25.859375 -50.609375 26.109375 -49.050781 26.109375 -47.125 Z M 26.109375 -0.109375 "/></g></g></g><g fill="#06d6a0" fill-opacity="1"><g transform="translate(170.867388, 98.371874)"><g><path d="M 3.578125 -28.078125 C 3.578125 -33.148438 4.347656 -37.554688 5.890625 -41.296875 C 7.429688 -45.035156 9.566406 -48.132812 12.296875 -50.59375 C 15.035156 -53.0625 18.234375 -54.890625 21.890625 -56.078125 C 25.546875 -57.273438 29.492188 -57.875 33.734375 -57.875 C 35.273438 -57.875 36.773438 -57.738281 38.234375 -57.46875 C 39.703125 -57.195312 40.894531 -56.867188 41.8125 -56.484375 L 41.8125 -75.203125 C 42.582031 -75.429688 43.8125 -75.679688 45.5 -75.953125 C 47.195312 -76.222656 48.9375 -76.359375 50.71875 -76.359375 C 52.40625 -76.359375 53.921875 -76.238281 55.265625 -76 C 56.617188 -75.769531 57.753906 -75.304688 58.671875 -74.609375 C 59.597656 -73.921875 60.289062 -72.976562 60.75 -71.78125 C 61.21875 -70.59375 61.453125 -69.035156 61.453125 -67.109375 L 61.453125 -12.359375 C 61.453125 -8.742188 59.757812 -5.859375 56.375 -3.703125 C 54.132812 -2.234375 51.242188 -0.941406 47.703125 0.171875 C 44.160156 1.285156 40.082031 1.84375 35.46875 1.84375 C 30.457031 1.84375 25.96875 1.148438 22 -0.234375 C 18.039062 -1.617188 14.691406 -3.617188 11.953125 -6.234375 C 9.222656 -8.859375 7.144531 -12 5.71875 -15.65625 C 4.289062 -19.3125 3.578125 -23.453125 3.578125 -28.078125 Z M 36.390625 -42.515625 C 32.234375 -42.515625 29.035156 -41.316406 26.796875 -38.921875 C 24.566406 -36.535156 23.453125 -32.921875 23.453125 -28.078125 C 23.453125 -23.296875 24.488281 -19.691406 26.5625 -17.265625 C 28.644531 -14.835938 31.648438 -13.625 35.578125 -13.625 C 36.960938 -13.625 38.210938 -13.835938 39.328125 -14.265625 C 40.453125 -14.691406 41.320312 -15.171875 41.9375 -15.703125 L 41.9375 -41.125 C 40.394531 -42.050781 38.546875 -42.515625 36.390625 -42.515625 Z M 36.390625 -42.515625 "/></g></g></g><g fill="#118ab2" fill-opacity="1"><g transform="translate(261.676759, 98.371874)"><g><path d="M 64.109375 -28.078125 C 64.109375 -23.296875 63.375 -19.035156 61.90625 -15.296875 C 60.445312 -11.566406 58.390625 -8.429688 55.734375 -5.890625 C 53.078125 -3.347656 49.898438 -1.421875 46.203125 -0.109375 C 42.503906 1.191406 38.382812 1.84375 33.84375 1.84375 C 29.300781 1.84375 25.179688 1.148438 21.484375 -0.234375 C 17.785156 -1.617188 14.609375 -3.597656 11.953125 -6.171875 C 9.296875 -8.753906 7.234375 -11.894531 5.765625 -15.59375 C 4.304688 -19.289062 3.578125 -23.453125 3.578125 -28.078125 C 3.578125 -32.617188 4.304688 -36.734375 5.765625 -40.421875 C 7.234375 -44.117188 9.296875 -47.257812 11.953125 -49.84375 C 14.609375 -52.425781 17.785156 -54.410156 21.484375 -55.796875 C 25.179688 -57.179688 29.300781 -57.875 33.84375 -57.875 C 38.382812 -57.875 42.503906 -57.160156 46.203125 -55.734375 C 49.898438 -54.304688 53.078125 -52.300781 55.734375 -49.71875 C 58.390625 -47.144531 60.445312 -44.007812 61.90625 -40.3125 C 63.375 -36.613281 64.109375 -32.535156 64.109375 -28.078125 Z M 23.6875 -28.078125 C 23.6875 -23.378906 24.585938 -19.773438 26.390625 -17.265625 C 28.203125 -14.765625 30.726562 -13.515625 33.96875 -13.515625 C 37.195312 -13.515625 39.675781 -14.785156 41.40625 -17.328125 C 43.144531 -19.867188 44.015625 -23.453125 44.015625 -28.078125 C 44.015625 -32.691406 43.128906 -36.25 41.359375 -38.75 C 39.585938 -41.257812 37.082031 -42.515625 33.84375 -42.515625 C 30.613281 -42.515625 28.113281 -41.257812 26.34375 -38.75 C 24.570312 -36.25 23.6875 -32.691406 23.6875 -28.078125 Z M 23.6875 -28.078125 "/></g></g></g><g fill="#ef476f" fill-opacity="1"><g transform="translate(0.0780854, 213.885906)"><g><path d="M 33.734375 -37.546875 C 36.960938 -37.546875 39.441406 -38.296875 41.171875 -39.796875 C 42.910156 -41.296875 43.78125 -43.585938 43.78125 -46.671875 C 43.78125 -49.597656 42.875 -51.847656 41.0625 -53.421875 C 39.25 -55.003906 36.613281 -55.796875 33.15625 -55.796875 C 31.925781 -55.796875 30.90625 -55.773438 30.09375 -55.734375 C 29.28125 -55.691406 28.453125 -55.597656 27.609375 -55.453125 L 27.609375 -37.546875 Z M 27.71875 -0.46875 C 26.875 -0.226562 25.546875 0.00390625 23.734375 0.234375 C 21.929688 0.460938 20.140625 0.578125 18.359375 0.578125 C 16.585938 0.578125 15.03125 0.441406 13.6875 0.171875 C 12.34375 -0.0976562 11.207031 -0.578125 10.28125 -1.265625 C 9.351562 -1.960938 8.660156 -2.925781 8.203125 -4.15625 C 7.742188 -5.382812 7.515625 -7.003906 7.515625 -9.015625 L 7.515625 -63.421875 C 7.515625 -65.035156 7.957031 -66.285156 8.84375 -67.171875 C 9.726562 -68.054688 10.9375 -68.769531 12.46875 -69.3125 C 15.09375 -70.238281 18.078125 -70.910156 21.421875 -71.328125 C 24.773438 -71.753906 28.144531 -71.96875 31.53125 -71.96875 C 42.164062 -71.96875 50.289062 -69.691406 55.90625 -65.140625 C 61.53125 -60.597656 64.34375 -54.441406 64.34375 -46.671875 C 64.34375 -42.898438 63.742188 -39.488281 62.546875 -36.4375 C 61.359375 -33.394531 59.585938 -30.773438 57.234375 -28.578125 C 54.890625 -26.390625 51.925781 -24.695312 48.34375 -23.5 C 44.757812 -22.3125 40.617188 -21.71875 35.921875 -21.71875 L 27.71875 -21.71875 Z M 27.71875 -0.46875 "/></g></g></g><g fill="#ffd166" fill-opacity="1"><g transform="translate(87.992086, 213.885906)"><g><path d="M 25.640625 -0.109375 C 24.867188 0.117188 23.65625 0.347656 22 0.578125 C 20.34375 0.804688 18.628906 0.921875 16.859375 0.921875 C 15.171875 0.921875 13.648438 0.804688 12.296875 0.578125 C 10.953125 0.347656 9.816406 -0.109375 8.890625 -0.796875 C 7.972656 -1.492188 7.257812 -2.4375 6.75 -3.625 C 6.25 -4.820312 6 -6.382812 6 -8.3125 L 6 -42.96875 C 6 -44.738281 6.328125 -46.257812 6.984375 -47.53125 C 7.640625 -48.800781 8.582031 -49.9375 9.8125 -50.9375 C 11.050781 -51.9375 12.570312 -52.84375 14.375 -53.65625 C 16.1875 -54.46875 18.128906 -55.179688 20.203125 -55.796875 C 22.285156 -56.410156 24.441406 -56.890625 26.671875 -57.234375 C 28.910156 -57.585938 31.148438 -57.765625 33.390625 -57.765625 C 37.078125 -57.765625 40 -57.050781 42.15625 -55.625 C 44.3125 -54.195312 45.390625 -51.863281 45.390625 -48.625 C 45.390625 -47.550781 45.234375 -46.492188 44.921875 -45.453125 C 44.617188 -44.410156 44.238281 -43.46875 43.78125 -42.625 C 42.164062 -42.625 40.507812 -42.546875 38.8125 -42.390625 C 37.113281 -42.234375 35.457031 -42 33.84375 -41.6875 C 32.226562 -41.382812 30.707031 -41.0625 29.28125 -40.71875 C 27.851562 -40.375 26.640625 -39.96875 25.640625 -39.5 Z M 25.640625 -0.109375 "/></g></g></g><g fill="#06d6a0" fill-opacity="1"><g transform="translate(158.57146, 213.885906)"><g><path d="M 5.546875 -71.734375 C 5.546875 -74.660156 6.523438 -77.125 8.484375 -79.125 C 10.453125 -81.125 13.050781 -82.125 16.28125 -82.125 C 19.519531 -82.125 22.117188 -81.125 24.078125 -79.125 C 26.046875 -77.125 27.03125 -74.660156 27.03125 -71.734375 C 27.03125 -68.804688 26.046875 -66.34375 24.078125 -64.34375 C 22.117188 -62.34375 19.519531 -61.34375 16.28125 -61.34375 C 13.050781 -61.34375 10.453125 -62.34375 8.484375 -64.34375 C 6.523438 -66.34375 5.546875 -68.804688 5.546875 -71.734375 Z M 26.109375 -0.109375 C 25.253906 0.0351562 24 0.242188 22.34375 0.515625 C 20.695312 0.785156 19.023438 0.921875 17.328125 0.921875 C 15.628906 0.921875 14.109375 0.804688 12.765625 0.578125 C 11.421875 0.347656 10.285156 -0.109375 9.359375 -0.796875 C 8.429688 -1.492188 7.71875 -2.4375 7.21875 -3.625 C 6.71875 -4.820312 6.46875 -6.382812 6.46875 -8.3125 L 6.46875 -55.328125 C 7.3125 -55.484375 8.5625 -55.695312 10.21875 -55.96875 C 11.875 -56.238281 13.550781 -56.375 15.25 -56.375 C 16.945312 -56.375 18.46875 -56.253906 19.8125 -56.015625 C 21.15625 -55.785156 22.289062 -55.320312 23.21875 -54.625 C 24.144531 -53.9375 24.859375 -52.992188 25.359375 -51.796875 C 25.859375 -50.609375 26.109375 -49.050781 26.109375 -47.125 Z M 26.109375 -0.109375 "/></g></g></g><g fill="#118ab2" fill-opacity="1"><g transform="translate(214.260354, 213.885906)"><g><path d="M 41.578125 -35.578125 C 41.578125 -37.960938 40.90625 -39.710938 39.5625 -40.828125 C 38.21875 -41.953125 36.390625 -42.515625 34.078125 -42.515625 C 32.535156 -42.515625 31.015625 -42.320312 29.515625 -41.9375 C 28.015625 -41.550781 26.722656 -40.972656 25.640625 -40.203125 L 25.640625 -0.109375 C 24.867188 0.117188 23.65625 0.347656 22 0.578125 C 20.34375 0.804688 18.628906 0.921875 16.859375 0.921875 C 15.171875 0.921875 13.648438 0.804688 12.296875 0.578125 C 10.953125 0.347656 9.816406 -0.109375 8.890625 -0.796875 C 7.972656 -1.492188 7.257812 -2.4375 6.75 -3.625 C 6.25 -4.820312 6 -6.382812 6 -8.3125 L 6 -42.96875 C 6 -45.050781 6.441406 -46.742188 7.328125 -48.046875 C 8.210938 -49.359375 9.425781 -50.554688 10.96875 -51.640625 C 13.59375 -53.484375 16.882812 -54.984375 20.84375 -56.140625 C 24.8125 -57.296875 29.222656 -57.875 34.078125 -57.875 C 42.773438 -57.875 49.472656 -55.96875 54.171875 -52.15625 C 58.867188 -48.34375 61.21875 -43.046875 61.21875 -36.265625 L 61.21875 -0.109375 C 60.445312 0.117188 59.234375 0.347656 57.578125 0.578125 C 55.921875 0.804688 54.207031 0.921875 52.4375 0.921875 C 50.75 0.921875 49.226562 0.804688 47.875 0.578125 C 46.53125 0.347656 45.394531 -0.109375 44.46875 -0.796875 C 43.550781 -1.492188 42.835938 -2.4375 42.328125 -3.625 C 41.828125 -4.820312 41.578125 -6.382812 41.578125 -8.3125 Z M 41.578125 -35.578125 "/></g></g></g><g fill="#ef476f" fill-opacity="1"><g transform="translate(304.712511, 213.885906)"><g><path d="M 25.640625 -19.296875 C 25.640625 -17.285156 26.273438 -15.859375 27.546875 -15.015625 C 28.816406 -14.171875 30.609375 -13.75 32.921875 -13.75 C 34.078125 -13.75 35.269531 -13.84375 36.5 -14.03125 C 37.726562 -14.226562 38.804688 -14.476562 39.734375 -14.78125 C 40.429688 -13.9375 41.03125 -12.992188 41.53125 -11.953125 C 42.03125 -10.910156 42.28125 -9.660156 42.28125 -8.203125 C 42.28125 -5.273438 41.179688 -2.882812 38.984375 -1.03125 C 36.785156 0.8125 32.914062 1.734375 27.375 1.734375 C 20.601562 1.734375 15.382812 0.191406 11.71875 -2.890625 C 8.0625 -5.972656 6.234375 -10.976562 6.234375 -17.90625 L 6.234375 -67.34375 C 7.085938 -67.570312 8.300781 -67.820312 9.875 -68.09375 C 11.457031 -68.363281 13.132812 -68.5 14.90625 -68.5 C 18.289062 -68.5 20.925781 -67.898438 22.8125 -66.703125 C 24.695312 -65.515625 25.640625 -62.992188 25.640625 -59.140625 L 25.640625 -51.75 L 40.78125 -51.75 C 41.238281 -50.90625 41.675781 -49.847656 42.09375 -48.578125 C 42.519531 -47.304688 42.734375 -45.898438 42.734375 -44.359375 C 42.734375 -41.660156 42.132812 -39.710938 40.9375 -38.515625 C 39.75 -37.328125 38.15625 -36.734375 36.15625 -36.734375 L 25.640625 -36.734375 Z M 25.640625 -19.296875 "/></g></g></g><g clip-path="url(#afa1726228)"><g transform="matrix(1, 0, 0, 1, 28, 244)"><g clip-path="url(#7f6d75bb76)"><g clip-path="url(#1e1bd940b6)"><path fill="#ffd166" d="M 0.902344 0.691406 L 263.589844 0.691406 L 263.589844 19.941406 L 0.902344 19.941406 Z M 0.902344 0.691406 " fill-opacity="1" fill-rule="nonzero"/></g></g></g></g><g clip-path="url(#f6b80945a1)"><path stroke-linecap="butt" transform="matrix(1.203271, 0, 0, 1.203271, 28.902042, 244.689965)" fill="none" stroke-linejoin="miter" d="M 0.000251155 0.00119765 L 218.298404 0.00119765 L 218.298404 15.999254 L 0.000251155 15.999254 Z M 0.000251155 0.00119765 " stroke="#000000" stroke-width="2.4862" stroke-opacity="1" stroke-miterlimit="4"/></g><g clip-path="url(#9ee23e23c5)"><g clip-path="url(#c1d3ddd625)"><g transform="matrix(1, 0, 0, 1, 290, 243)"><g clip-path="url(#9fbf8aef55)"><g clip-path="url(#7a776e05b3)"><g clip-path="url(#34544cce62)"><path fill="#ef476f" d="M 35.746094 0.3125 L 35.746094 22.316406 L 0.164062 22.316406 L 0.164062 0.3125 Z M 35.746094 0.3125 " fill-opacity="1" fill-rule="nonzero"/></g></g></g></g></g></g><g clip-path="url(#e5fd87be06)"><g clip-path="url(#57713a1756)"><path stroke-linecap="butt" transform="matrix(0, 1.203271, -1.203271, 0, 325.746982, 243.313404)" fill="none" stroke-linejoin="miter" d="M 9.140995 0.000738174 L 18.282742 29.591299 L -0.00075097 29.591299 Z M 9.140995 0.000738174 " stroke="#000000" stroke-width="2.4862" stroke-opacity="1" stroke-miterlimit="4"/></g></g></g></g></g></svg>